{"title":"35 Czas honoru S03E09 XviD","uid":5940965,"size":366231599,"categoryP":"video","categoryS":"tv_shows","magnet":"?xt=urn:btih:6d2d87695335f9ebc96ec81f7aac1b6c643e8ee8&amp;dn=35+Czas+honoru+S03E09+XviD&amp;tr=udp%3A%2F%2Ftracker.openbittorrent.com%3A80&amp;tr=udp%3A%2F%2Fopen.demonii.com%3A1337&amp;tr=udp%3A%2F%2Ftracker.coppersurfer.tk%3A6969&amp;tr=udp%3A%2F%2Fexodus.desync.com%3A6969","seeders":0,"leechers":1,"uploader":"kisielm","files":2,"time":1289175883,"description":"Format                           : AVI\nFormat/Info                      : Audio Video Interleave\nFile size                        : 349 MiB\nDuration                         : 44mn 11s\nOverall bit rate                 : 1 105 Kbps\n\nVideo\nFormat                           : MPEG-4 Visual\nFormat profile                   : Advanced Simple@L5\nFormat settings, BVOP            : Yes\nFormat settings, QPel            : No\nFormat settings, GMC             : No warppoints\nFormat settings, Matrix          : Default (H.263)\nCodec ID                         : XVID\nCodec ID/Hint                    : XviD\nBit rate                         : 983 Kbps\nWidth                            : 624 pixels\nHeight                           : 352 pixels\nDisplay aspect ratio             : 16:9\nFrame rate                       : 25.000 fps\nColor space                      : YUV\nChroma subsampling               : 4:2:0\nBit depth                        : 8 bits\nScan type                        : Progressive\nBits/(Pixel*Frame)               : 0.179\nStream size                      : 311 MiB (89%)\n\nAudio\nFormat                           : MPEG Audio\nFormat version                   : Version 1\nFormat profile                   : Layer 3\nMode                             : Joint stereo\nMode extension                   : MS Stereo\nCodec ID/Hint                    : MP3\nBit rate mode                    : Variable\nBit rate                         : 109 Kbps\nNominal bit rate                 : 128 Kbps\nChannel(s)                       : 2 channels\nSampling rate                    : 48.0 KHz\nStream size                      : 34.4 MiB (10%)","torrent":{"xt":"urn:btih:6d2d87695335f9ebc96ec81f7aac1b6c643e8ee8","amp;dn":"35+Czas+honoru+S03E09+XviD","amp;tr":["udp%3A%2F%2Ftracker.openbittorrent.com%3A80","udp%3A%2F%2Fopen.demonii.com%3A1337","udp%3A%2F%2Ftracker.coppersurfer.tk%3A6969","udp%3A%2F%2Fexodus.desync.com%3A6969"],"infoHash":"6d2d87695335f9ebc96ec81f7aac1b6c643e8ee8","infoHashBuffer":{"type":"Buffer","data":[109,45,135,105,83,53,249,235,201,110,200,31,122,172,27,108,100,62,142,232]},"announce":[],"urlList":[]}}